<?xml version="1.0" encoding="UTF-8" standalone="no"?>
<svg
   width="864pt"
   height="216pt"
   viewBox="0 0 864 216"
   version="1.1"
   id="svg864"
   sodipodi:docname="partition_layout.svg"
   inkscape:version="1.2.2 (b0a8486541, 2022-12-01)"
   inkscape:export-filename="partition_layout.png"
   inkscape:export-xdpi="96"
   inkscape:export-ydpi="96"
   xmlns:inkscape="http://www.inkscape.org/namespaces/inkscape"
   xmlns:sodipodi="http://sodipodi.sourceforge.net/DTD/sodipodi-0.dtd"
   xmlns:xlink="http://www.w3.org/1999/xlink"
   xmlns="http://www.w3.org/2000/svg"
   xmlns:svg="http://www.w3.org/2000/svg"
   xmlns:rdf="http://www.w3.org/1999/02/22-rdf-syntax-ns#"
   xmlns:cc="http://creativecommons.org/ns#"
   xmlns:dc="http://purl.org/dc/elements/1.1/">
  <sodipodi:namedview
     id="namedview866"
     pagecolor="#505050"
     bordercolor="#eeeeee"
     borderopacity="1"
     inkscape:showpageshadow="0"
     inkscape:pageopacity="0"
     inkscape:pagecheckerboard="0"
     inkscape:deskcolor="#505050"
     inkscape:document-units="pt"
     showgrid="false"
     inkscape:zoom="1.6388889"
     inkscape:cx="328.57627"
     inkscape:cy="167.18644"
     inkscape:window-width="1680"
     inkscape:window-height="981"
     inkscape:window-x="1920"
     inkscape:window-y="32"
     inkscape:window-maximized="1"
     inkscape:current-layer="svg864"
     showguides="true" />
  <metadata
     id="metadata451">
    <rdf:RDF>
      <cc:Work>
        <dc:type
           rdf:resource="http://purl.org/dc/dcmitype/StillImage" />
        <dc:date>2024-08-13T20:25:11.325315</dc:date>
        <dc:format>image/svg+xml</dc:format>
        <dc:creator>
          <cc:Agent>
            <dc:title>Matplotlib v3.6.3, https://matplotlib.org/</dc:title>
          </cc:Agent>
        </dc:creator>
      </cc:Work>
    </rdf:RDF>
  </metadata>
  <defs
     id="defs455">
    <style
       type="text/css"
       id="style453">*{stroke-linejoin: round; stroke-linecap: butt}</style>
  </defs>
  <g
     id="patch_1"
     transform="translate(0,-0.33037192)">
    <path
       d="M 0,216 H 864 V 0 H 0 Z"
       style="fill:#002b36"
       id="path457" />
  </g>
  <g
     id="patch_2">
    <path
       d="M 57.76,181.24 H 864 v -163 H 57.76 Z"
       style="fill:#002b36"
       id="path460" />
  </g>
  <g
     id="patch_3"
     transform="matrix(1.0099402,0,0,1,-4.3302636,0)">
    <path
       d="M 63.954698,173.83091 H 435.6366 V 107.97232 H 63.954698 Z"
       clip-path="url(#pfee5674a23)"
       style="fill:#268bd2"
       id="path463" />
  </g>
  <g
     id="patch_4">
    <path
       d="M 454.2207,173.83091 H 825.9026 V 107.97232 H 454.2207 Z"
       clip-path="url(#pfee5674a23)"
       style="fill:#2aa198"
       id="path466" />
  </g>
  <g
     id="patch_5">
    <path
       d="m 435.6366,173.83091 h 18.5841 v -65.85859 h -18.5841 z"
       clip-path="url(#pfee5674a23)"
       style="fill:#859900"
       id="path469" />
  </g>
  <g
     id="patch_6"
     transform="matrix(1.0203392,0,0,1,-5.0806277,0)">
    <path
       d="M 63.954698,91.507677 H 249.79565 V 25.649091 H 63.954698 Z"
       clip-path="url(#pfee5674a23)"
       style="fill:#268bd2"
       id="path472" />
  </g>
  <g
     id="patch_7">
    <path
       d="M 249.79565,91.507677 H 435.6366 V 25.649091 H 249.79565 Z"
       clip-path="url(#pfee5674a23)"
       style="fill:#2aa198"
       id="path475" />
  </g>
  <g
     id="patch_8">
    <path
       d="m 435.6366,91.507677 h 18.5841 V 25.649091 h -18.5841 z"
       clip-path="url(#pfee5674a23)"
       style="fill:#859900"
       id="path478" />
  </g>
  <g
     id="xtick_1">
    <g
       id="line2d_1">
      <defs
         id="defs482">
        <path
           id="m959a3cbfec"
           d="M 0,0 V 3.5"
           style="stroke:#93a1a1;stroke-width:0.8" />
      </defs>
      <g
         id="g486">
        <use
           xlink:href="#m959a3cbfec"
           x="57.759998"
           y="181.24001"
           style="fill:#93a1a1;stroke:#93a1a1;stroke-width:0.8"
           id="use484" />
      </g>
    </g>
    <g
       id="text_1">
      <!-- 0 -->
      <g
         style="fill:#93a1a1"
         transform="matrix(0.12,0,0,-0.12,53.9425,197.35812)"
         id="g494">
        <defs
           id="defs490">
          <path
             id="DejaVuSans-30"
             d="m 2034,4250 q -487,0 -733,-480 -245,-479 -245,-1442 0,-959 245,-1439 246,-480 733,-480 491,0 736,480 246,480 246,1439 0,963 -246,1442 -245,480 -736,480 z m 0,500 q 785,0 1199,-621 414,-620 414,-1801 0,-1178 -414,-1799 -414,-620 -1199,-620 -784,0 -1198,620 -414,621 -414,1799 0,1181 414,1801 414,621 1198,621 z"
             transform="scale(0.015625)" />
        </defs>
        <use
           xlink:href="#DejaVuSans-30"
           id="use492" />
      </g>
    </g>
  </g>
  <use
     xlink:href="#m959a3cbfec"
     x="156.87517"
     y="181.24001"
     style="fill:#93a1a1;stroke:#93a1a1;stroke-width:0.8"
     id="use498" />
  <g
     id="text_2">
    <!-- 1 -->
    <g
       style="fill:#93a1a1"
       transform="matrix(0.12,0,0,-0.12,153.05767,197.35812)"
       id="g508">
      <defs
         id="defs504">
        <path
           id="DejaVuSans-31"
           d="M 794,531 H 1825 V 4091 L 703,3866 v 575 l 1116,225 h 631 V 531 H 3481 V 0 H 794 Z"
           transform="scale(0.015625)" />
      </defs>
      <use
         xlink:href="#DejaVuSans-31"
         id="use506" />
    </g>
  </g>
  <g
     id="xtick_3">
    <g
       id="line2d_3">
      <g
         id="g514">
        <use
           xlink:href="#m959a3cbfec"
           x="255.99036"
           y="181.24001"
           style="fill:#93a1a1;stroke:#93a1a1;stroke-width:0.8"
           id="use512" />
      </g>
    </g>
    <g
       id="text_3">
      <!-- 2 -->
      <g
         style="fill:#93a1a1"
         transform="matrix(0.12,0,0,-0.12,252.17285,197.35812)"
         id="g522">
        <defs
           id="defs518">
          <path
             id="DejaVuSans-32"
             d="M 1228,531 H 3431 V 0 H 469 v 531 q 359,372 979,998 621,627 780,809 303,340 423,576 121,236 121,464 0,372 -261,606 -261,235 -680,235 -297,0 -627,-103 -329,-103 -704,-313 v 638 q 381,153 712,231 332,78 607,78 725,0 1156,-363 431,-362 431,-968 0,-288 -108,-546 -107,-257 -392,-607 -78,-91 -497,-524 Q 1991,1309 1228,531 Z"
             transform="scale(0.015625)" />
        </defs>
        <use
           xlink:href="#DejaVuSans-32"
           id="use520" />
      </g>
    </g>
  </g>
  <g
     id="xtick_4">
    <g
       id="line2d_4">
      <g
         id="g528">
        <use
           xlink:href="#m959a3cbfec"
           x="355.10553"
           y="181.24001"
           style="fill:#93a1a1;stroke:#93a1a1;stroke-width:0.8"
           id="use526" />
      </g>
    </g>
    <g
       id="text_4">
      <!-- 3 -->
      <g
         style="fill:#93a1a1"
         transform="matrix(0.12,0,0,-0.12,351.28802,197.35812)"
         id="g536">
        <defs
           id="defs532">
          <path
             id="DejaVuSans-33"
             d="m 2597,2516 q 453,-97 707,-404 255,-306 255,-756 0,-690 -475,-1069 -475,-378 -1350,-378 -293,0 -604,58 -311,58 -642,174 v 609 q 262,-153 574,-231 313,-78 654,-78 593,0 904,234 311,234 311,681 0,413 -289,645 -289,233 -804,233 h -544 v 519 h 569 q 465,0 712,186 247,186 247,536 0,359 -255,551 -254,193 -729,193 -260,0 -557,-57 -297,-56 -653,-174 v 562 q 360,100 674,150 314,50 592,50 719,0 1137,-327 419,-326 419,-882 0,-388 -222,-655 -222,-267 -631,-370 z"
             transform="scale(0.015625)" />
        </defs>
        <use
           xlink:href="#DejaVuSans-33"
           id="use534" />
      </g>
    </g>
  </g>
  <g
     id="xtick_5">
    <g
       id="line2d_5">
      <g
         id="g542">
        <use
           xlink:href="#m959a3cbfec"
           x="454.2207"
           y="181.24001"
           style="fill:#93a1a1;stroke:#93a1a1;stroke-width:0.8"
           id="use540" />
      </g>
    </g>
    <g
       id="text_5">
      <!-- 4 -->
      <g
         style="fill:#93a1a1"
         transform="matrix(0.12,0,0,-0.12,450.4032,197.35812)"
         id="g550">
        <defs
           id="defs546">
          <path
             id="DejaVuSans-34"
             d="M 2419,4116 825,1625 h 1594 z m -166,550 h 794 V 1625 h 666 V 1100 H 3047 V 0 H 2419 V 1100 H 313 v 609 z"
             transform="scale(0.015625)" />
        </defs>
        <use
           xlink:href="#DejaVuSans-34"
           id="use548" />
      </g>
    </g>
  </g>
  <g
     id="xtick_6">
    <g
       id="line2d_6">
      <g
         id="g556">
        <use
           xlink:href="#m959a3cbfec"
           x="553.33588"
           y="181.24001"
           style="fill:#93a1a1;stroke:#93a1a1;stroke-width:0.8"
           id="use554" />
      </g>
    </g>
    <g
       id="text_6">
      <!-- 5 -->
      <g
         style="fill:#93a1a1"
         transform="matrix(0.12,0,0,-0.12,549.51837,197.35812)"
         id="g564">
        <defs
           id="defs560">
          <path
             id="DejaVuSans-35"
             d="M 691,4666 H 3169 V 4134 H 1269 V 2991 q 137,47 274,70 138,23 276,23 781,0 1237,-428 457,-428 457,-1159 Q 3513,744 3044,326 2575,-91 1722,-91 1428,-91 1123,-41 819,9 494,109 v 635 q 281,-153 581,-228 300,-75 634,-75 541,0 856,284 316,284 316,772 0,487 -316,771 -315,285 -856,285 -253,0 -505,-56 -251,-56 -513,-175 z"
             transform="scale(0.015625)" />
        </defs>
        <use
           xlink:href="#DejaVuSans-35"
           id="use562" />
      </g>
    </g>
  </g>
  <g
     id="xtick_7">
    <g
       id="line2d_7">
      <g
         id="g570">
        <use
           xlink:href="#m959a3cbfec"
           x="652.45105"
           y="181.24001"
           style="fill:#93a1a1;stroke:#93a1a1;stroke-width:0.8"
           id="use568" />
      </g>
    </g>
    <g
       id="text_7">
      <!-- 6 -->
      <g
         style="fill:#93a1a1"
         transform="matrix(0.12,0,0,-0.12,648.63355,197.35812)"
         id="g578">
        <defs
           id="defs574">
          <path
             id="DejaVuSans-36"
             d="m 2113,2584 q -425,0 -674,-291 -248,-290 -248,-796 0,-503 248,-796 249,-292 674,-292 425,0 673,292 248,293 248,796 0,506 -248,796 -248,291 -673,291 z m 1253,1979 v -575 q -238,112 -480,171 -242,60 -480,60 -625,0 -955,-422 -329,-422 -376,-1275 184,272 462,417 279,145 613,145 703,0 1111,-427 408,-426 408,-1160 0,-719 -425,-1154 -425,-434 -1131,-434 -810,0 -1238,620 -428,621 -428,1799 0,1106 525,1764 525,658 1409,658 238,0 480,-47 242,-47 505,-140 z"
             transform="scale(0.015625)" />
        </defs>
        <use
           xlink:href="#DejaVuSans-36"
           id="use576" />
      </g>
    </g>
  </g>
  <g
     id="xtick_8">
    <g
       id="line2d_8">
      <g
         id="g584">
        <use
           xlink:href="#m959a3cbfec"
           x="751.56622"
           y="181.24001"
           style="fill:#93a1a1;stroke:#93a1a1;stroke-width:0.8"
           id="use582" />
      </g>
    </g>
    <g
       id="text_8">
      <!-- 7 -->
      <g
         style="fill:#93a1a1"
         transform="matrix(0.12,0,0,-0.12,747.74872,197.35812)"
         id="g592">
        <defs
           id="defs588">
          <path
             id="DejaVuSans-37"
             d="M 525,4666 H 3525 V 4397 L 1831,0 H 1172 L 2766,4134 H 525 Z"
             transform="scale(0.015625)" />
        </defs>
        <use
           xlink:href="#DejaVuSans-37"
           id="use590" />
      </g>
    </g>
  </g>
  <g
     id="xtick_9">
    <g
       id="line2d_9">
      <g
         id="g598">
        <use
           xlink:href="#m959a3cbfec"
           x="850.6814"
           y="181.24001"
           style="fill:#93a1a1;stroke:#93a1a1;stroke-width:0.8"
           id="use596" />
      </g>
    </g>
    <g
       id="text_9">
      <!-- 8 -->
      <g
         style="fill:#93a1a1"
         transform="matrix(0.12,0,0,-0.12,846.8639,197.35812)"
         id="g606">
        <defs
           id="defs602">
          <path
             id="DejaVuSans-38"
             d="m 2034,2216 q -450,0 -708,-241 -257,-241 -257,-662 0,-422 257,-663 258,-241 708,-241 450,0 709,242 260,243 260,662 0,421 -258,662 -257,241 -711,241 z m -631,268 q -406,100 -633,378 -226,279 -226,679 0,559 398,884 399,325 1092,325 697,0 1094,-325 397,-325 397,-884 0,-400 -227,-679 -226,-278 -629,-378 456,-106 710,-416 255,-309 255,-755 Q 3634,634 3220,271 2806,-91 2034,-91 1263,-91 848,271 434,634 434,1313 q 0,446 256,755 257,310 713,416 z m -231,997 q 0,-362 226,-565 227,-203 636,-203 407,0 636,203 230,203 230,565 0,363 -230,566 -229,203 -636,203 -409,0 -636,-203 -226,-203 -226,-566 z"
             transform="scale(0.015625)" />
        </defs>
        <use
           xlink:href="#DejaVuSans-38"
           id="use604" />
      </g>
    </g>
  </g>
  <g
     id="text_10">
    <!-- Memory Address (MiB) -->
    <g
       style="fill:#93a1a1"
       transform="matrix(0.12,0,0,-0.12,393.12969,212.97187)"
       id="g666">
      <defs
         id="defs624">
        <path
           id="DejaVuSans-4d"
           d="m 628,4666 h 941 L 2759,1491 3956,4666 h 941 V 0 H 4281 V 4097 L 3078,897 H 2444 L 1241,4097 V 0 H 628 Z"
           transform="scale(0.015625)" />
        <path
           id="DejaVuSans-65"
           d="M 3597,1894 V 1613 H 953 q 38,-594 358,-905 320,-311 892,-311 331,0 642,81 311,81 618,244 V 178 Q 3153,47 2828,-22 2503,-91 2169,-91 1331,-91 842,396 353,884 353,1716 q 0,859 464,1363 464,505 1252,505 706,0 1117,-455 411,-454 411,-1235 z m -575,169 q -6,471 -264,752 -258,282 -683,282 -481,0 -770,-272 -289,-272 -333,-766 z"
           transform="scale(0.015625)" />
        <path
           id="DejaVuSans-6d"
           d="m 3328,2828 q 216,388 516,572 300,184 706,184 547,0 844,-383 297,-382 297,-1088 V 0 h -578 v 2094 q 0,503 -179,746 -178,244 -543,244 -447,0 -707,-297 -259,-296 -259,-809 V 0 h -578 v 2094 q 0,506 -178,748 -178,242 -550,242 -441,0 -701,-298 -259,-298 -259,-808 V 0 H 581 v 3500 h 578 v -544 q 197,322 472,475 275,153 653,153 382,0 649,-194 267,-193 395,-562 z"
           transform="scale(0.015625)" />
        <path
           id="DejaVuSans-6f"
           d="m 1959,3097 q -462,0 -731,-361 -269,-361 -269,-989 0,-628 267,-989 268,-361 733,-361 460,0 728,362 269,363 269,988 0,622 -269,986 -268,364 -728,364 z m 0,487 q 750,0 1178,-488 429,-487 429,-1349 Q 3566,888 3137,398 2709,-91 1959,-91 1206,-91 779,398 353,888 353,1747 q 0,862 426,1349 427,488 1180,488 z"
           transform="scale(0.015625)" />
        <path
           id="DejaVuSans-72"
           d="m 2631,2963 q -97,56 -211,82 -114,27 -251,27 -488,0 -749,-317 -261,-317 -261,-911 V 0 H 581 v 3500 h 578 v -544 q 182,319 472,473 291,155 707,155 59,0 131,-8 72,-7 159,-23 z"
           transform="scale(0.015625)" />
        <path
           id="DejaVuSans-79"
           d="m 2059,-325 q -243,-625 -475,-815 -231,-191 -618,-191 H 506 v 481 h 338 q 237,0 368,113 132,112 291,531 L 1606,56 191,3500 H 800 L 1894,763 2988,3500 h 609 z"
           transform="scale(0.015625)" />
        <path
           id="DejaVuSans-20"
           transform="scale(0.015625)"
           d="" />
        <path
           id="DejaVuSans-41"
           d="M 2188,4044 1331,1722 h 1716 z m -357,622 h 716 L 4325,0 H 3669 L 3244,1197 H 1141 L 716,0 H 50 Z"
           transform="scale(0.015625)" />
        <path
           id="DejaVuSans-64"
           d="m 2906,2969 v 1894 h 575 V 0 H 2906 V 525 Q 2725,213 2448,61 2172,-91 1784,-91 1150,-91 751,415 353,922 353,1747 q 0,825 398,1331 399,506 1033,506 388,0 664,-152 277,-151 458,-463 z M 947,1747 q 0,-634 261,-995 261,-361 717,-361 456,0 718,361 263,361 263,995 0,634 -263,995 -262,361 -718,361 -456,0 -717,-361 -261,-361 -261,-995 z"
           transform="scale(0.015625)" />
        <path
           id="DejaVuSans-73"
           d="m 2834,3397 v -544 q -243,125 -506,187 -262,63 -544,63 -428,0 -642,-131 -214,-131 -214,-394 0,-200 153,-314 153,-114 616,-217 l 197,-44 q 612,-131 870,-370 258,-239 258,-667 0,-488 -386,-773 Q 2250,-91 1575,-91 1294,-91 989,-36 684,19 347,128 v 594 q 319,-166 628,-249 309,-82 613,-82 406,0 624,139 219,139 219,392 0,234 -158,359 -157,125 -692,241 l -200,47 q -534,112 -772,345 -237,233 -237,639 0,494 350,762 350,269 994,269 318,0 599,-47 282,-46 519,-140 z"
           transform="scale(0.015625)" />
        <path
           id="DejaVuSans-28"
           d="m 1984,4856 q -418,-718 -622,-1422 -203,-703 -203,-1425 0,-721 205,-1429 205,-708 620,-1424 h -500 q -468,735 -701,1444 -233,709 -233,1409 0,697 231,1403 232,707 703,1444 z"
           transform="scale(0.015625)" />
        <path
           id="DejaVuSans-69"
           d="m 603,3500 h 575 V 0 H 603 Z m 0,1363 h 575 V 4134 H 603 Z"
           transform="scale(0.015625)" />
        <path
           id="DejaVuSans-42"
           d="M 1259,2228 V 519 h 1013 q 509,0 754,211 246,211 246,645 0,438 -246,645 -245,208 -754,208 z m 0,1919 V 2741 h 935 q 462,0 688,173 227,174 227,530 0,353 -227,528 -226,175 -688,175 z m -631,519 h 1613 q 722,0 1112,-300 391,-300 391,-853 0,-429 -200,-682 -200,-253 -588,-315 466,-100 724,-418 258,-317 258,-792 0,-625 -425,-966 Q 3088,0 2303,0 H 628 Z"
           transform="scale(0.015625)" />
        <path
           id="DejaVuSans-29"
           d="m 513,4856 h 500 q 468,-737 701,-1444 233,-706 233,-1403 0,-700 -233,-1409 -233,-709 -701,-1444 H 513 q 415,716 620,1424 205,708 205,1429 0,722 -205,1425 -205,704 -620,1422 z"
           transform="scale(0.015625)" />
      </defs>
      <use
         xlink:href="#DejaVuSans-4d"
         id="use626" />
      <use
         xlink:href="#DejaVuSans-65"
         x="86.279297"
         id="use628" />
      <use
         xlink:href="#DejaVuSans-6d"
         x="147.80273"
         id="use630" />
      <use
         xlink:href="#DejaVuSans-6f"
         x="245.21484"
         id="use632" />
      <use
         xlink:href="#DejaVuSans-72"
         x="306.39648"
         id="use634" />
      <use
         xlink:href="#DejaVuSans-79"
         x="347.50977"
         id="use636" />
      <use
         xlink:href="#DejaVuSans-20"
         x="406.68945"
         id="use638" />
      <use
         xlink:href="#DejaVuSans-41"
         x="438.47656"
         id="use640" />
      <use
         xlink:href="#DejaVuSans-64"
         x="505.13477"
         id="use642" />
      <use
         xlink:href="#DejaVuSans-64"
         x="568.61133"
         id="use644" />
      <use
         xlink:href="#DejaVuSans-72"
         x="632.08789"
         id="use646" />
      <use
         xlink:href="#DejaVuSans-65"
         x="670.95117"
         id="use648" />
      <use
         xlink:href="#DejaVuSans-73"
         x="732.47461"
         id="use650" />
      <use
         xlink:href="#DejaVuSans-73"
         x="784.57422"
         id="use652" />
      <use
         xlink:href="#DejaVuSans-20"
         x="836.67383"
         id="use654" />
      <use
         xlink:href="#DejaVuSans-28"
         x="868.46094"
         id="use656" />
      <use
         xlink:href="#DejaVuSans-4d"
         x="907.47461"
         id="use658" />
      <use
         xlink:href="#DejaVuSans-69"
         x="993.75391"
         id="use660" />
      <use
         xlink:href="#DejaVuSans-42"
         x="1021.5371"
         id="use662" />
      <use
         xlink:href="#DejaVuSans-29"
         x="1090.1406"
         id="use664" />
    </g>
  </g>
  <g
     id="text_11">
    <!-- New -->
    <g
       style="fill:#93a1a1"
       transform="matrix(0.12,0,0,-0.12,24.585,145.46068)"
       id="g688">
      <defs
         id="defs680">
        <path
           id="DejaVuSans-4e"
           d="m 628,4666 h 850 L 3547,763 v 3903 h 612 V 0 H 3309 L 1241,3903 V 0 H 628 Z"
           transform="scale(0.015625)" />
        <path
           id="DejaVuSans-77"
           d="m 269,3500 h 575 l 719,-2731 715,2731 h 678 l 719,-2731 716,2731 h 575 L 4050,0 H 3372 L 2619,2869 1863,0 h -679 z"
           transform="scale(0.015625)" />
      </defs>
      <use
         xlink:href="#DejaVuSans-4e"
         id="use682" />
      <use
         xlink:href="#DejaVuSans-65"
         x="74.804688"
         id="use684" />
      <use
         xlink:href="#DejaVuSans-77"
         x="136.32812"
         id="use686" />
    </g>
  </g>
  <g
     id="text_12">
    <!-- Previous -->
    <g
       style="fill:#93a1a1"
       transform="matrix(0.12,0,0,-0.12,0.0525,63.137446)"
       id="g718">
      <defs
         id="defs700">
        <path
           id="DejaVuSans-50"
           d="M 1259,4147 V 2394 h 794 q 441,0 681,228 241,228 241,650 0,419 -241,647 -240,228 -681,228 z m -631,519 h 1425 q 785,0 1186,-355 402,-355 402,-1039 0,-691 -402,-1044 -401,-353 -1186,-353 H 1259 V 0 H 628 Z"
           transform="scale(0.015625)" />
        <path
           id="DejaVuSans-76"
           d="M 191,3500 H 800 L 1894,563 2988,3500 h 609 L 2284,0 h -781 z"
           transform="scale(0.015625)" />
        <path
           id="DejaVuSans-75"
           d="m 544,1381 v 2119 h 575 V 1403 q 0,-497 193,-746 194,-248 582,-248 465,0 735,297 271,297 271,810 v 1984 h 575 V 0 H 2900 V 538 Q 2691,219 2414,64 2138,-91 1772,-91 1169,-91 856,284 544,659 544,1381 Z m 1447,2203 z"
           transform="scale(0.015625)" />
      </defs>
      <use
         xlink:href="#DejaVuSans-50"
         id="use702" />
      <use
         xlink:href="#DejaVuSans-72"
         x="58.552734"
         id="use704" />
      <use
         xlink:href="#DejaVuSans-65"
         x="97.416016"
         id="use706" />
      <use
         xlink:href="#DejaVuSans-76"
         x="158.93945"
         id="use708" />
      <use
         xlink:href="#DejaVuSans-69"
         x="218.11914"
         id="use710" />
      <use
         xlink:href="#DejaVuSans-6f"
         x="245.90234"
         id="use712" />
      <use
         xlink:href="#DejaVuSans-75"
         x="307.08398"
         id="use714" />
      <use
         xlink:href="#DejaVuSans-73"
         x="370.46289"
         id="use716" />
    </g>
  </g>
  <path
     d="M 57.863334,181.24 H 864.00006"
     style="fill:none;stroke:#93a1a1;stroke-width:0.999936;stroke-linecap:square;stroke-linejoin:miter;stroke-opacity:1"
     id="path726" />
  <g
     id="text_13">
    <!-- app0 -->
    <g
       style="fill:#ffffff"
       transform="matrix(0,-0.1,-0.1,0,252.55503,154.91255)"
       id="g742">
      <defs
         id="defs732">
        <path
           id="DejaVuSans-Bold-61"
           d="m 2106,1575 q -350,0 -527,-119 -176,-118 -176,-350 0,-212 142,-333 143,-120 396,-120 315,0 531,226 216,227 216,568 v 128 z m 1710,422 V 0 H 2688 V 519 Q 2463,200 2181,54 1900,-91 1497,-91 953,-91 614,226 275,544 275,1050 q 0,616 423,903 424,288 1330,288 h 660 v 87 q 0,266 -210,389 -209,124 -653,124 -359,0 -669,-72 -309,-72 -575,-216 v 853 q 360,88 722,133 363,45 725,45 947,0 1367,-373 421,-373 421,-1214 z"
           transform="scale(0.015625)" />
        <path
           id="DejaVuSans-Bold-70"
           d="M 1656,506 V -1331 H 538 v 4831 h 1118 v -512 q 232,306 513,451 281,145 647,145 647,0 1062,-514 416,-514 416,-1323 0,-809 -416,-1324 -415,-514 -1062,-514 -366,0 -647,145 -281,146 -513,452 z m 744,2266 q -359,0 -552,-264 -192,-264 -192,-761 0,-497 192,-761 193,-264 552,-264 359,0 548,262 190,263 190,763 0,500 -190,762 -189,263 -548,263 z"
           transform="scale(0.015625)" />
        <path
           id="DejaVuSans-Bold-30"
           d="m 2944,2338 q 0,875 -164,1232 -164,358 -552,358 -387,0 -553,-358 -166,-357 -166,-1232 0,-885 166,-1248 166,-362 553,-362 385,0 550,362 166,363 166,1248 z m 1203,-10 Q 4147,1169 3647,539 3147,-91 2228,-91 1306,-91 806,539 306,1169 306,2328 q 0,1163 500,1792 500,630 1422,630 919,0 1419,-630 500,-629 500,-1792 z"
           transform="scale(0.015625)" />
      </defs>
      <use
         xlink:href="#DejaVuSans-Bold-61"
         id="use734" />
      <use
         xlink:href="#DejaVuSans-Bold-70"
         x="67.480469"
         id="use736" />
      <use
         xlink:href="#DejaVuSans-Bold-70"
         x="139.0625"
         id="use738" />
      <use
         xlink:href="#DejaVuSans-Bold-30"
         x="210.64453"
         id="use740" />
    </g>
  </g>
  <g
     id="text_14">
    <!-- app1 -->
    <g
       style="fill:#ffffff"
       transform="matrix(0,-0.1,-0.1,0,642.82103,154.91255)"
       id="g756">
      <defs
         id="defs746">
        <path
           id="DejaVuSans-Bold-31"
           d="M 750,831 H 1813 V 3847 L 722,3622 v 819 l 1084,225 H 2950 V 831 H 4013 V 0 H 750 Z"
           transform="scale(0.015625)" />
      </defs>
      <use
         xlink:href="#DejaVuSans-Bold-61"
         id="use748" />
      <use
         xlink:href="#DejaVuSans-Bold-70"
         x="67.480469"
         id="use750" />
      <use
         xlink:href="#DejaVuSans-Bold-70"
         x="139.0625"
         id="use752" />
      <use
         xlink:href="#DejaVuSans-Bold-31"
         x="210.64453"
         id="use754" />
    </g>
  </g>
  <g
     id="text_15">
    <!-- spiffs -->
    <g
       style="fill:#ffffff"
       transform="matrix(0,-0.1,-0.1,0,447.68803,156.49615)"
       id="g776">
      <defs
         id="defs762">
        <path
           id="DejaVuSans-Bold-73"
           d="m 3272,3391 v -850 q -359,150 -694,225 -334,75 -631,75 -319,0 -474,-80 -154,-80 -154,-245 0,-135 117,-207 117,-71 420,-106 l 197,-28 q 860,-109 1156,-359 297,-250 297,-785 0,-559 -413,-841 -412,-281 -1230,-281 -347,0 -718,55 -370,55 -761,164 v 850 q 335,-162 686,-244 352,-81 714,-81 329,0 494,90 166,91 166,270 0,150 -114,223 -114,73 -455,114 l -197,25 q -747,94 -1047,347 -300,253 -300,769 0,556 381,824 382,269 1169,269 310,0 650,-47 341,-46 741,-146 z"
           transform="scale(0.015625)" />
        <path
           id="DejaVuSans-Bold-69"
           d="M 538,3500 H 1656 V 0 H 538 Z m 0,1363 H 1656 V 3950 H 538 Z"
           transform="scale(0.015625)" />
        <path
           id="DejaVuSans-Bold-66"
           d="m 2841,4863 v -735 h -619 q -238,0 -332,-86 -93,-86 -93,-298 v -244 h 956 V 2700 H 1797 V 0 H 678 V 2700 H 122 v 800 h 556 v 244 q 0,572 319,845 319,274 987,274 z"
           transform="scale(0.015625)" />
      </defs>
      <use
         xlink:href="#DejaVuSans-Bold-73"
         id="use764" />
      <use
         xlink:href="#DejaVuSans-Bold-70"
         x="59.521484"
         id="use766" />
      <use
         xlink:href="#DejaVuSans-Bold-69"
         x="131.10352"
         id="use768" />
      <use
         xlink:href="#DejaVuSans-Bold-66"
         x="165.38086"
         id="use770" />
      <use
         xlink:href="#DejaVuSans-Bold-66"
         x="208.88672"
         id="use772" />
      <use
         xlink:href="#DejaVuSans-Bold-73"
         x="252.39258"
         id="use774" />
    </g>
  </g>
  <g
     id="text_16">
    <!-- app0 -->
    <g
       style="fill:#ffffff"
       transform="matrix(0,-0.1,-0.1,0,159.63455,72.589321)"
       id="g787">
      <use
         xlink:href="#DejaVuSans-Bold-61"
         id="use779" />
      <use
         xlink:href="#DejaVuSans-Bold-70"
         x="67.480469"
         id="use781" />
      <use
         xlink:href="#DejaVuSans-Bold-70"
         x="139.0625"
         id="use783" />
      <use
         xlink:href="#DejaVuSans-Bold-30"
         x="210.64453"
         id="use785" />
    </g>
  </g>
  <g
     id="text_17">
    <!-- app1 -->
    <g
       style="fill:#ffffff"
       transform="matrix(0,-0.1,-0.1,0,345.4755,72.589321)"
       id="g798">
      <use
         xlink:href="#DejaVuSans-Bold-61"
         id="use790" />
      <use
         xlink:href="#DejaVuSans-Bold-70"
         x="67.480469"
         id="use792" />
      <use
         xlink:href="#DejaVuSans-Bold-70"
         x="139.0625"
         id="use794" />
      <use
         xlink:href="#DejaVuSans-Bold-31"
         x="210.64453"
         id="use796" />
    </g>
  </g>
  <g
     id="text_18">
    <!-- spiffs -->
    <g
       style="fill:#ffffff"
       transform="matrix(0,-0.1,-0.1,0,447.68803,74.172915)"
       id="g813">
      <use
         xlink:href="#DejaVuSans-Bold-73"
         id="use801" />
      <use
         xlink:href="#DejaVuSans-Bold-70"
         x="59.521484"
         id="use803" />
      <use
         xlink:href="#DejaVuSans-Bold-69"
         x="131.10352"
         id="use805" />
      <use
         xlink:href="#DejaVuSans-Bold-66"
         x="165.38086"
         id="use807" />
      <use
         xlink:href="#DejaVuSans-Bold-66"
         x="208.88672"
         id="use809" />
      <use
         xlink:href="#DejaVuSans-Bold-73"
         x="252.39258"
         id="use811" />
    </g>
  </g>
  <g
     id="text_19">
    <!-- Partition Layout -->
    <g
       style="fill:#93a1a1"
       transform="matrix(0.16,0,0,-0.16,397.80375,12.24)"
       id="g854">
      <defs
         id="defs820">
        <path
           id="DejaVuSans-61"
           d="m 2194,1759 q -697,0 -966,-159 -269,-159 -269,-544 0,-306 202,-486 202,-179 548,-179 479,0 768,339 289,339 289,901 v 128 z m 1147,238 V 0 H 2766 V 531 Q 2569,213 2275,61 1981,-91 1556,-91 q -537,0 -855,302 -317,302 -317,808 0,590 395,890 396,300 1180,300 h 807 v 57 q 0,397 -261,614 -261,217 -733,217 -300,0 -585,-72 -284,-72 -546,-216 v 532 q 315,122 612,182 297,61 578,61 760,0 1135,-394 375,-393 375,-1193 z"
           transform="scale(0.015625)" />
        <path
           id="DejaVuSans-74"
           d="M 1172,4494 V 3500 H 2356 V 3053 H 1172 V 1153 q 0,-428 117,-550 117,-122 477,-122 h 590 V 0 H 1766 Q 1100,0 847,248 594,497 594,1153 V 3053 H 172 v 447 h 422 v 994 z"
           transform="scale(0.015625)" />
        <path
           id="DejaVuSans-6e"
           d="M 3513,2113 V 0 h -575 v 2094 q 0,497 -194,743 -194,247 -581,247 -466,0 -735,-297 -269,-296 -269,-809 V 0 H 581 v 3500 h 578 v -544 q 207,316 486,472 280,156 646,156 603,0 912,-373 310,-373 310,-1098 z"
           transform="scale(0.015625)" />
        <path
           id="DejaVuSans-4c"
           d="m 628,4666 h 631 V 531 H 3531 V 0 H 628 Z"
           transform="scale(0.015625)" />
      </defs>
      <use
         xlink:href="#DejaVuSans-50"
         id="use822" />
      <use
         xlink:href="#DejaVuSans-61"
         x="55.802734"
         id="use824" />
      <use
         xlink:href="#DejaVuSans-72"
         x="117.08203"
         id="use826" />
      <use
         xlink:href="#DejaVuSans-74"
         x="158.19531"
         id="use828" />
      <use
         xlink:href="#DejaVuSans-69"
         x="197.4043"
         id="use830" />
      <use
         xlink:href="#DejaVuSans-74"
         x="225.1875"
         id="use832" />
      <use
         xlink:href="#DejaVuSans-69"
         x="264.39648"
         id="use834" />
      <use
         xlink:href="#DejaVuSans-6f"
         x="292.17969"
         id="use836" />
      <use
         xlink:href="#DejaVuSans-6e"
         x="353.36133"
         id="use838" />
      <use
         xlink:href="#DejaVuSans-20"
         x="416.74023"
         id="use840" />
      <use
         xlink:href="#DejaVuSans-4c"
         x="448.52734"
         id="use842" />
      <use
         xlink:href="#DejaVuSans-61"
         x="504.24023"
         id="use844" />
      <use
         xlink:href="#DejaVuSans-79"
         x="565.51953"
         id="use846" />
      <use
         xlink:href="#DejaVuSans-6f"
         x="624.69922"
         id="use848" />
      <use
         xlink:href="#DejaVuSans-75"
         x="685.88086"
         id="use850" />
      <use
         xlink:href="#DejaVuSans-74"
         x="749.25977"
         id="use852" />
    </g>
  </g>
  <defs
     id="defs862">
    <clipPath
       id="pfee5674a23">
      <rect
         x="57.76"
         y="18.24"
         width="806.24"
         height="163"
         id="rect859" />
    </clipPath>
  </defs>
</svg>
